<svg id="Layer_1" data-name="Layer 1" xmlns="http://www.w3.org/2000/svg" viewBox="0 0 87.11 87.5"><defs><style>.cls-1{fill:#ffdd71;}.cls-2{fill:#8994d4;}</style></defs><title>clear</title><path class="cls-1" d="M45.22,28.93A16.09,16.09,0,1,1,29.13,12.84h0A16.11,16.11,0,0,1,45.22,28.93Z" transform="translate(-1.7 -1.5)"/><path class="cls-1" d="M29.13,10.24A1.34,1.34,0,0,1,27.8,8.91V2.83a1.33,1.33,0,0,1,2.66,0V8.91a1.34,1.34,0,0,1-1.33,1.33Z" transform="translate(-1.7 -1.5)"/><path class="cls-1" d="M14.37,15.44a1.16,1.16,0,0,1-.89-.38L9.87,11.45a1.39,1.39,0,0,1,.32-1.84,1.23,1.23,0,0,1,1.46,0l3.61,3.61a1.32,1.32,0,0,1,0,1.84.92.92,0,0,1-.89.38Z" transform="translate(-1.7 -1.5)"/><path class="cls-1" d="M43.26,16.07A1.29,1.29,0,0,1,42,14.74a1.16,1.16,0,0,1,.38-.89l4.31-4.3a1.31,1.31,0,0,1,1.84-.32,1.26,1.26,0,0,1,.31,1.84.77.77,0,0,1-.31.31l-4.31,4.31A1.31,1.31,0,0,1,43.26,16.07Z" transform="translate(-1.7 -1.5)"/><path class="cls-1" d="M10.7,48.63A1.29,1.29,0,0,1,9.43,47.3a1.18,1.18,0,0,1,.38-.89l4.31-4.3a1.38,1.38,0,0,1,1.83.31,1.23,1.23,0,0,1,0,1.46l-4.3,4.31A1.14,1.14,0,0,1,10.7,48.63Z" transform="translate(-1.7 -1.5)"/><path class="cls-1" d="M29.13,56.3A1.34,1.34,0,0,1,27.8,55h0v-5.2a1.33,1.33,0,1,1,2.66,0V55A1.34,1.34,0,0,1,29.13,56.3Z" transform="translate(-1.7 -1.5)"/><path class="cls-1" d="M9.18,30.2H3a1.33,1.33,0,0,1,0-2.66H9.11a1.34,1.34,0,0,1,1.33,1.33A1.28,1.28,0,0,1,9.18,30.2Z" transform="translate(-1.7 -1.5)"/><path class="cls-1" d="M55.23,30.2H49.15a1.33,1.33,0,0,1,0-2.66h6.08a1.34,1.34,0,0,1,1.33,1.33A1.38,1.38,0,0,1,55.23,30.2Z" transform="translate(-1.7 -1.5)"/><path class="cls-1" d="M47.57,48.63a1.13,1.13,0,0,1-.89-.38l-4.31-4.31a1.38,1.38,0,0,1,.32-1.83,1.22,1.22,0,0,1,1.45,0l4.31,4.3a1.3,1.3,0,0,1,0,1.84.87.87,0,0,1-.88.38Z" transform="translate(-1.7 -1.5)"/><path class="cls-2" d="M88.73,74.87A22.38,22.38,0,1,1,59.67,45.81a1.41,1.41,0,0,1,1.45.3,1.3,1.3,0,0,1,.3,1.44A19.26,19.26,0,0,0,60,54.87a19.69,19.69,0,0,0,19.71,19.7A19.17,19.17,0,0,0,87,73.18a1.32,1.32,0,0,1,1.74.74,1.54,1.54,0,0,1,0,1Z" transform="translate(-1.7 -1.5)"/></svg>