<svg id="Layer_1" data-name="Layer 1" xmlns="http://www.w3.org/2000/svg" viewBox="0 0 88.96 56.96"><defs><style>.cls-1{fill:#8994d4;}</style></defs><title>cloud</title><path class="cls-1" d="M89.48,54.24a16.2,16.2,0,0,1-4,10.73,15.15,15.15,0,0,1-11.27,5.11H16.89a16.67,16.67,0,0,1-4.81-.71,16.42,16.42,0,0,1,1.6-31.77,1.85,1.85,0,0,0,1.47-2V34.58A12.5,12.5,0,0,1,27.64,22.1a12.29,12.29,0,0,1,9,3.91,1.84,1.84,0,0,0,2.6.06,1.69,1.69,0,0,0,.43-.62A20,20,0,0,1,77.86,37.14a1.83,1.83,0,0,0,1.2,2.09A15.83,15.83,0,0,1,89.48,54.24Z" transform="translate(-0.52 -13.12)"/></svg>