<svg id="Layer_1" data-name="Layer 1" xmlns="http://www.w3.org/2000/svg" viewBox="0 0 88.7 85.67"><defs><style>.cls-1{fill:gray;}.cls-2{fill:#8994d4;}</style></defs><title>drizzle</title><path class="cls-1" d="M89,44a16.19,16.19,0,0,1-4,10.7,15.08,15.08,0,0,1-11.23,5.09H16.62a15.93,15.93,0,0,1-4.79-.71,16.36,16.36,0,0,1,1.6-31.68,1.83,1.83,0,0,0,1.46-1.95v-1A12.46,12.46,0,0,1,27.34,11.93a12.28,12.28,0,0,1,9,3.89,1.78,1.78,0,0,0,1.66.55,1.83,1.83,0,0,0,1.36-1.09,20,20,0,0,1,38,11.58,1.84,1.84,0,0,0,1.2,2.1A15.78,15.78,0,0,1,89,44Z" transform="translate(-0.28 -3.19)"/><path class="cls-2" d="M50,82.88A5.45,5.45,0,1,1,39.2,83.94a4.7,4.7,0,0,1,0-1.06c0-2.38,3.32-8.4,5.42-8.4S50,80.48,50,82.88Z" transform="translate(-0.28 -3.19)"/><path class="cls-2" d="M37.11,74a5.45,5.45,0,1,1-10.86.91,4.61,4.61,0,0,1,0-.91c0-2.37,3.33-8.4,5.42-8.4S37.11,71.62,37.11,74Z" transform="translate(-0.28 -3.19)"/><path class="cls-2" d="M63,74a5.45,5.45,0,1,1-10.86.91,6.91,6.91,0,0,1,0-.91c0-2.37,3.34-8.4,5.44-8.4S63,71.62,63,74Z" transform="translate(-0.28 -3.19)"/></svg>