<svg id="Layer_1" data-name="Layer 1" xmlns="http://www.w3.org/2000/svg" viewBox="0 0 88 57.99"><defs><style>.cls-1{fill:gray;}.cls-2,.cls-3{fill:none;stroke-linecap:round;stroke-miterlimit:10;stroke-width:3.91px;}.cls-2{stroke:gray;}.cls-3{stroke:#000;}</style></defs><title>else</title><path class="cls-1" d="M17.59,50.91a2,2,0,1,0,0,3.91H56.68V50.91Z" transform="translate(-0.97 -15.63)"/><path class="cls-1" d="M2.93,43.1a2,2,0,1,0,0,3.9H73.29V43.1Z" transform="translate(-0.97 -15.63)"/><path class="cls-1" d="M9.77,36.26a2,2,0,1,0,0,3.9H41v-3.9Z" transform="translate(-0.97 -15.63)"/><path class="cls-2" d="M31.66,28.83A9.38,9.38,0,1,1,41,38.21" transform="translate(-0.97 -15.63)"/><path class="cls-2" d="M59.56,31.32A13.73,13.73,0,1,1,73.29,45.05" transform="translate(-0.97 -15.63)"/><path class="cls-3" d="M55.7,53.85" transform="translate(-0.97 -15.63)"/><path class="cls-2" d="M47.27,62.27a9.41,9.41,0,1,0,9.41-9.4" transform="translate(-0.97 -15.63)"/></svg>