<svg id="b50c90a1-13f8-40ae-8a07-2cff909416b3" xmlns="http://www.w3.org/2000/svg" viewBox="0 0 783 722.26"><defs><style>.cls-1{fill:#2e2c70;}.cls-2{fill:none;stroke:#ffc6c6;stroke-miterlimit:10;}.cls-3{fill:#ffdd71;}.cls-4{fill:#a0616a;}.cls-5{fill:#3f3d56;}.cls-6{fill:#2f2e41;}.cls-7{opacity:0.1;isolation:isolate;}.cls-8{fill:#8792d3;}</style></defs><title>weather_app</title><path class="cls-1" d="M769.51,575.25a147,147,0,0,0-237.29-116A159.07,159.07,0,0,0,260.3,515a118.63,118.63,0,1,0-78.82,207.3c1.84,0,3.68,0,5.5-.13,1.88.08,3.77.13,5.68.13H638A129,129,0,0,0,766.33,605.77,148.27,148.27,0,0,0,769.51,575.25Z" transform="translate(-13)"/><path class="cls-2" d="M774.51,557.25a147,147,0,0,0-237.29-116A159.07,159.07,0,0,0,265.3,497a118.63,118.63,0,1,0-78.82,207.3c1.84,0,3.68,0,5.5-.13,1.88.08,3.77.13,5.68.13H643A129,129,0,0,0,771.33,587.77,148.27,148.27,0,0,0,774.51,557.25Z" transform="translate(-13)"/><circle class="cls-3" cx="179.67" cy="368.8" r="93.45"/><rect class="cls-3" x="157.08" y="165.06" width="45.81" height="92.35" rx="22.9" ry="22.9"/><rect class="cls-3" x="283.12" y="267.38" width="92.35" height="45.81" rx="22.9" ry="22.9" transform="translate(-114.02 203.54) rotate(-30)"/><rect class="cls-3" x="9.89" y="424.42" width="92.35" height="45.81" rx="22.9" ry="22.9" transform="translate(-229.15 87.96) rotate(-30)"/><rect class="cls-3" x="33.46" y="243.58" width="45.81" height="92.35" rx="22.9" ry="22.9" transform="translate(-235.75 193.69) rotate(-60)"/><circle class="cls-2" cx="190.67" cy="357.8" r="93.45"/><rect class="cls-2" x="168.08" y="154.06" width="45.81" height="92.35" rx="22.9" ry="22.9"/><rect class="cls-2" x="294.12" y="256.38" width="92.35" height="45.81" rx="22.9" ry="22.9" transform="translate(-107.05 207.56) rotate(-30)"/><rect class="cls-2" x="20.89" y="413.42" width="92.35" height="45.81" rx="22.9" ry="22.9" transform="translate(-222.18 91.99) rotate(-30)"/><rect class="cls-2" x="44.46" y="232.58" width="45.81" height="92.35" rx="22.9" ry="22.9" transform="translate(-220.72 197.71) rotate(-60)"/><path class="cls-4" d="M697.22,530.7l-16.09,32.8S652,559.79,663.8,598.16c0,0-3.09,29.09-9.28,35.28s5,47,27.23,35.28c12.53-6.62,13.32-14.21,11.6-19.59a48.45,48.45,0,0,1-1.5-24.88c2.23-10.47,6.26-23.86,13.42-35.37,14.23-22.9,27.85-45.18,27.85-45.18Z" transform="translate(-13)"/><path class="cls-5" d="M657,328.94s-35.27-8.66-47-2.47-46.42,6.8-46.42,6.8-29.09,47-22.28,71.18,35.28,39,35.28,39l95.93.62,15.47-63.13s-7.43-43.32-13.62-45.8S657,328.94,657,328.94Z" transform="translate(-13)"/><circle class="cls-6" cx="612.43" cy="112.95" r="52.61"/><path class="cls-4" d="M592.63,158.13s6.19,26-3.1,29.09-17.32,15.47-17.32,15.47l13.61,22.9,46.42,11.76,14.23-13.62L657,194.64l-10.52-7.42s-9.9,3.09-10.52-6.81a165.71,165.71,0,0,1,.62-22.28Z" transform="translate(-13)"/><path class="cls-7" d="M592.63,158.13s6.19,26-3.1,29.09-17.32,15.47-17.32,15.47l13.61,22.9,46.42,11.76,14.23-13.62L657,194.64l-10.52-7.42s-9.9,3.09-10.52-6.81a165.71,165.71,0,0,1,.62-22.28Z" transform="translate(-13)"/><circle class="cls-4" cx="603.46" cy="137.39" r="37.75"/><path class="cls-8" d="M614.29,223.73l-35.9-32.8s-16.09,13.61-17.94,13.61-26,7.43-26.62,10.53,21,35.89,21,35.89-5,24.14,0,34.66,1.23,55.7,1.23,55.7,32.81-11.76,50.13-6.19,68.08,0,68.08,0,7.43-47.65,4.33-53.84-3.71-41.47-3.71-41.47l26.61-29.09s-5.57-22.28-26.61-23.51-34-2.48-34-2.48Z" transform="translate(-13)"/><path class="cls-5" d="M572.21,376S502.89,344.41,475,329.56s-70.56-3.09-56.94,30.33,89.74,66.22,89.74,66.22,24.76,18.57,39.61,17.95,36.2-.31,36.2-.31Z" transform="translate(-13)"/><path class="cls-5" d="M679.27,380.31s124.4,1.24,116.36,47.66-55.7,123.77-64.37,125.63S691,541.84,691,537.51s30.33-84.17,30.33-84.17l-74.27-22.9Z" transform="translate(-13)"/><path class="cls-4" d="M702.79,241.68s7.43,71.17,3.72,82.31-16.72,41.47-33.43,56.32-40.22,89.74-53.22,53.84,21-55.7,21-55.7l34.12-48,.32-78.13Z" transform="translate(-13)"/><path class="cls-4" d="M563.54,390.83s61.27,21.66,68.08,18.57,21.66,8,21.66,8a53.41,53.41,0,0,1,40.23,7.43c19.8,13,24.14,27.85,19.8,28.47s-19.8-6.19-19.8-6.19-23.52-4.95-37.75-.62-32.79-4.8-32.79-4.8l-75.52-16.86Z" transform="translate(-13)"/><path class="cls-7" d="M563.54,390.83s61.27,21.66,68.08,18.57,21.66,8,21.66,8a53.41,53.41,0,0,1,40.23,7.43c19.8,13,24.14,27.85,19.8,28.47s-19.8-6.19-19.8-6.19-23.52-4.95-37.75-.62-32.79-4.8-32.79-4.8l-75.52-16.86Z" transform="translate(-13)"/><path class="cls-4" d="M533.83,268.29s.62,76.74,9.91,86,19.18,21.66,28.47,27.23,14.23,18.57,14.23,18.57,44.56,65,45.18,35.27-22.9-53.22-22.9-53.22l-4.6-4.39a208.07,208.07,0,0,1-27.18-31.2,32.55,32.55,0,0,0-6.59-7.12c-8.05-6.19-9.9-74.26-9.9-74.26Z" transform="translate(-13)"/><path class="cls-8" d="M688.56,203.31l13,7.42s5,32.8,7.43,37.14-30.33,15.47-35.28,12.38-7.42-33.43-7.42-33.43Z" transform="translate(-13)"/><path class="cls-8" d="M541.88,214.45h-8s-8.66,9.28-8,29.08-7.43,32.19-2.48,34,29.65-8,29.37-5.22,12.72-2.2,12.72-2.2l-8.67-32.8Z" transform="translate(-13)"/><path class="cls-7" d="M479.68,341.32s37.75,16.09,48.28,18.57,44.52,31.44,44.52,31.44l-23.21,35.25s-23.79-2.95-36.79-5.42-90.36-53.85-77.36-62.51S479.68,341.32,479.68,341.32Z" transform="translate(-13)"/><path class="cls-5" d="M471.94,341.32s37.76,16.09,48.28,18.57,52,30.94,52,30.94l-20.43,39.61s-34-6.81-47-9.28-90.36-53.85-77.37-62.51S471.94,341.32,471.94,341.32Z" transform="translate(-13)"/><circle class="cls-6" cx="622.64" cy="77.36" r="52.61"/><circle class="cls-6" cx="637.5" cy="24.76" r="24.76"/></svg>