<svg id="Layer_1" data-name="Layer 1" xmlns="http://www.w3.org/2000/svg" viewBox="0 0 88.23 78.08"><defs><style>.cls-1{fill:#ffdd71;}.cls-2{fill:gray;}.cls-3{fill:#8994d4;}</style></defs><title>rain</title><path class="cls-1" d="M89.24,25A17.4,17.4,0,0,1,83,38.39a3.76,3.76,0,0,0-.25-.54c-.13-.29-.28-.59-.43-.87s-.25-.46-.39-.68a17.74,17.74,0,0,0-3.81-4.51l-.47-.38A15.08,15.08,0,0,0,76,30.24a3.12,3.12,0,0,0-.49-.31h-.07l-.69-.35a5.68,5.68,0,0,0-.74-.37,22.55,22.55,0,0,0,.22-3V24.9c0-.41-.08-.84-.12-1.25s-.08-.66-.14-1v-.12a2.82,2.82,0,0,0-.12-.62.74.74,0,0,0,0-.21c-.07-.33-.15-.67-.24-1s-.15-.54-.23-.8-.26-.8-.4-1.18-.3-.79-.47-1.18a21.61,21.61,0,0,0-1.18-2.23c-.16-.27-.32-.53-.49-.79a2.25,2.25,0,0,0-.24-.36c-.17-.27-.36-.53-.55-.79a1.61,1.61,0,0,0-.21-.3c-.17-.22-.33-.42-.5-.62A3.72,3.72,0,0,0,68.9,12c-.15-.2-.33-.39-.5-.58L68,10.93c-.16-.16-.32-.33-.48-.47a21.4,21.4,0,0,0-2.06-1.75A17.51,17.51,0,0,1,89.24,25Z" transform="translate(-1.01 -7.53)"/><path class="cls-2" d="M83,45.66a14.88,14.88,0,0,1-3.7,9.87A13.94,13.94,0,0,1,68.9,60.24H16.13a15.73,15.73,0,0,1-4.42-.67,15.13,15.13,0,0,1,1.44-29.3,1.7,1.7,0,0,0,1.35-1.82v-.94A11.51,11.51,0,0,1,26,16a11.36,11.36,0,0,1,8.34,3.6,1.69,1.69,0,0,0,2.38.09,1.65,1.65,0,0,0,.41-.6A18.5,18.5,0,0,1,61.28,9.18,17.47,17.47,0,0,1,63,10h.11a12.76,12.76,0,0,1,1.36.84,8,8,0,0,1,.74.51,17.93,17.93,0,0,1,3.53,3.43,17.39,17.39,0,0,1,1.34,2,14.46,14.46,0,0,1,1.18,2.19c.14.32.27.64.39,1a18.68,18.68,0,0,1,.72,2.56c.07.32.13.65.17,1a18.09,18.09,0,0,1,.21,2.75,16.91,16.91,0,0,1-.36,3.62,1.7,1.7,0,0,0,1.11,1.94,14.43,14.43,0,0,1,9,9.73A15.19,15.19,0,0,1,83,45.66Z" transform="translate(-1.01 -7.53)"/><path class="cls-3" d="M28.71,85.61A1.69,1.69,0,0,1,27,83.91a1.66,1.66,0,0,1,.11-.58l6-16.28a1.7,1.7,0,0,1,3.18,1.18L30.3,84.51A1.69,1.69,0,0,1,28.71,85.61Z" transform="translate(-1.01 -7.53)"/><path class="cls-3" d="M19.49,78.46a1.7,1.7,0,0,1-1.59-2.28l3.36-9.12a1.69,1.69,0,0,1,3.17,1.18L21,77.37A1.69,1.69,0,0,1,19.49,78.46Z" transform="translate(-1.01 -7.53)"/><path class="cls-3" d="M55.14,78.46a1.68,1.68,0,0,1-1.59-2.28l3.39-9.13a1.69,1.69,0,0,1,3.17,1.18l-3.38,9.13A1.7,1.7,0,0,1,55.14,78.46Z" transform="translate(-1.01 -7.53)"/><path class="cls-3" d="M40.6,85.61A1.68,1.68,0,0,1,39,83.33l6-16.28a1.7,1.7,0,0,1,3.18,1.18l-6,16.28A1.69,1.69,0,0,1,40.6,85.61Z" transform="translate(-1.01 -7.53)"/></svg>