<svg id="Layer_1" data-name="Layer 1" xmlns="http://www.w3.org/2000/svg" viewBox="0 0 87.24 87.24"><defs><style>.cls-1{fill:#8994d4;}</style></defs><title>snow</title><path class="cls-1" d="M84.5,41.71h-6l1.57-1.58a3.29,3.29,0,0,0,0-4.63,3.2,3.2,0,0,0-4.54-.11l-.12.11-4.87,4.87L66.13,35.9V29.63H73a3.29,3.29,0,0,0,0-6.58H70.79l4.26-4.26a3.28,3.28,0,0,0-4.64-4.63l-4.25,4.26V16.16a3.3,3.3,0,1,0-6.59,0h0v6.89H53.29l-4.47-4.47,4.87-4.87a3.24,3.24,0,0,0,.1-4.59l-.1-.1a3.29,3.29,0,0,0-4.63,0L47.48,10.6V4.65a3.29,3.29,0,1,0-6.58,0V10.6L39.32,9a3.29,3.29,0,0,0-4.63,0,3.24,3.24,0,0,0-.1,4.59.47.47,0,0,0,.1.1l4.87,4.87-4.47,4.47H28.84V16.16a3.3,3.3,0,1,0-6.59,0h0v2.26L18,14.18a3.28,3.28,0,0,0-4.63,4.63l4.26,4.26H15.36a3.29,3.29,0,0,0,0,6.58h6.89v6.27l-4.46,4.47L12.93,35.5a3.2,3.2,0,0,0-4.54-.11l-.12.11a3.29,3.29,0,0,0,0,4.63l1.58,1.58h-6a3.29,3.29,0,1,0,0,6.58h6L8.27,49.87a3.29,3.29,0,0,0,0,4.63,3.2,3.2,0,0,0,2.34,1,3.16,3.16,0,0,0,2.34-1l4.87-4.87,4.46,4.47v6.27H15.36a3.29,3.29,0,0,0,0,6.58h2.27L13.38,71.2a3.29,3.29,0,0,0,0,4.63,3.3,3.3,0,0,0,4.63,0l4.26-4.26v2.29a3.29,3.29,0,0,0,6.58,0V67h6.27l4.47,4.47L34.7,76.27a3.23,3.23,0,0,0-.11,4.55l.11.12a3.36,3.36,0,0,0,2.3,1,3.41,3.41,0,0,0,2.34-1l1.57-1.58v6a3.3,3.3,0,0,0,6.59,0v-6l1.57,1.58a3.41,3.41,0,0,0,2.34,1,3.36,3.36,0,0,0,2.3-1,3.23,3.23,0,0,0,.11-4.55l-.11-.12-4.87-4.86,4.46-4.47h6.27v6.92a3.3,3.3,0,0,0,6.59,0V71.58l4.25,4.26a3.33,3.33,0,0,0,2.3,1,3.42,3.42,0,0,0,2.34-1,3.29,3.29,0,0,0,0-4.63L70.79,67h2.26a3.29,3.29,0,0,0,0-6.58h-6.9V54.09l4.46-4.47,4.87,4.87a3.16,3.16,0,0,0,2.34,1,3.24,3.24,0,0,0,2.34-1,3.29,3.29,0,0,0,0-4.63l-1.58-1.58h6a3.29,3.29,0,0,0,0-6.58ZM27.33,40.13a3.49,3.49,0,0,0,.9-1.68h0a3.2,3.2,0,0,0,.61-1.89V34.27l7.44,7.44H25.75Zm.9,11.45h0a3.72,3.72,0,0,0-.9-1.68l-1.58-1.58H36.28l-7.44,7.45V53.54A3.35,3.35,0,0,0,28.23,51.58ZM40.91,63.5l-1.57-1.58A3.23,3.23,0,0,0,37.65,61h0a3.16,3.16,0,0,0-1.92-.61H33.5L40.94,53Zm0-26.38-7.44-7.44H35.7a3.42,3.42,0,0,0,1.89-.58h0a3.5,3.5,0,0,0,1.72-.93l1.57-1.57ZM47.5,26.6l1.57,1.57a3.5,3.5,0,0,0,1.72.93h0a3.42,3.42,0,0,0,1.89.58h2.23l-7.44,7.44Zm5.21,33.82a3.16,3.16,0,0,0-1.92.61h0a3.23,3.23,0,0,0-1.69.89L47.53,63.5V52.92L55,60.37ZM61.08,50a3.72,3.72,0,0,0-.9,1.68h0a3.32,3.32,0,0,0-.61,1.92v2.24l-7.44-7.45H62.66Zm-8.94-8.16,7.45-7.45v2.27a3.14,3.14,0,0,0,.61,1.89h0a3.39,3.39,0,0,0,.89,1.68l1.58,1.58Z" transform="translate(-0.6 -1.36)"/></svg>