<?xml version="1.0" encoding="utf-8"?>
<!-- Generator: Adobe Illustrator 22.1.0, SVG Export Plug-In . SVG Version: 6.00 Build 0)  -->
<svg version="1.1" id="Layer_1" xmlns="http://www.w3.org/2000/svg" xmlns:xlink="http://www.w3.org/1999/xlink" x="0px" y="0px"
	 viewBox="0 0 90 90" style="enable-background:new 0 0 90 90;" xml:space="preserve">
<style type="text/css">
	.st0{fill:#FFDD71;}
	.st1{fill:#808080;}
</style>
<title>weather-glyps</title>
<path class="st0" d="M42.2,76.3c0.2-0.7-0.2-1.4-0.9-1.6c-0.1,0-0.2,0-0.3-0.1h-6.8l4.7-12.4h12.7l-3.3,6c-0.3,0.6,0,1.4,0.6,1.7
	c0.1,0.1,0.3,0.1,0.5,0.1h5.1L38,88L42.2,76.3z"/>
<path class="st1" d="M88,42.5c0,3.9-1.4,7.6-3.9,10.5c-2.8,3.2-6.8,5-11,5h-56c-1.6,0-3.2-0.2-4.7-0.7C3.9,54.7-0.8,45.7,1.9,37.2
	c1.7-5.6,6.4-9.8,12.1-10.9c0.9-0.2,1.5-1,1.4-1.9c0-0.3,0-0.7,0-1c0-6.7,5.5-12.2,12.2-12.2c3.3,0,6.5,1.4,8.8,3.8
	c0.4,0.4,1,0.6,1.6,0.5c0.6-0.1,1.1-0.5,1.3-1.1C43.6,4.4,55-0.3,65,3.9c7.3,3,12,10.1,12,18c0,1.3-0.1,2.6-0.4,3.8
	c-0.2,0.9,0.3,1.8,1.1,2.1C84,30.1,88.1,36,88,42.5z"/>
</svg>
