<svg id="Layer_1" data-name="Layer 1" xmlns="http://www.w3.org/2000/svg" viewBox="0 0 86.42 79.75"><defs><style>.cls-1{fill:gray;}</style></defs><title>tornado</title><path class="cls-1" d="M49.22,87.14H37.43a2.42,2.42,0,1,1,0-4.83H49.15a2.42,2.42,0,1,1,0,4.83Z" transform="translate(-1.47 -7.39)"/><path class="cls-1" d="M61.31,74.65H41.71a2.42,2.42,0,1,1,0-4.83h19.6a2.42,2.42,0,0,1,0,4.83Z" transform="translate(-1.47 -7.39)"/><path class="cls-1" d="M73.39,62.18H41.71a2.42,2.42,0,1,1,0-4.83H73.39a2.42,2.42,0,1,1,0,4.83Z" transform="translate(-1.47 -7.39)"/><path class="cls-1" d="M75.81,49.68H29.09a2.42,2.42,0,1,1,0-4.83H75.81a2.42,2.42,0,0,1,0,4.83Z" transform="translate(-1.47 -7.39)"/><path class="cls-1" d="M71.14,37.19H16.5a2.42,2.42,0,1,1,0-4.83H71.14a2.42,2.42,0,1,1,0,4.83Z" transform="translate(-1.47 -7.39)"/><path class="cls-1" d="M75.32,24.72H8.14a2.42,2.42,0,1,1,0-4.83H75.32a2.42,2.42,0,1,1,0,4.83Z" transform="translate(-1.47 -7.39)"/><path class="cls-1" d="M85.47,12.22H3.88a2.42,2.42,0,0,1,0-4.83H85.47a2.42,2.42,0,1,1,0,4.83Z" transform="translate(-1.47 -7.39)"/></svg>